<?xml version="1.0" encoding="UTF-8" standalone="no"?>
<!-- Created with Inkscape (http://www.inkscape.org/) -->

<svg
   width="1104mm"
   height="216mm"
   viewBox="0 0 1104 216"
   version="1.1"
   id="svg1"
   inkscape:version="1.3.2 (091e20e, 2023-11-25, custom)"
   sodipodi:docname="logo-light.svg"
   xmlns:inkscape="http://www.inkscape.org/namespaces/inkscape"
   xmlns:sodipodi="http://sodipodi.sourceforge.net/DTD/sodipodi-0.dtd"
   xmlns="http://www.w3.org/2000/svg"
   xmlns:svg="http://www.w3.org/2000/svg">
  <sodipodi:namedview
     id="namedview1"
     pagecolor="#ffffff"
     bordercolor="#000000"
     borderopacity="0.25"
     inkscape:showpageshadow="2"
     inkscape:pageopacity="0.0"
     inkscape:pagecheckerboard="0"
     inkscape:deskcolor="#d1d1d1"
     inkscape:document-units="mm"
     showborder="false"
     inkscape:zoom="0.27104202"
     inkscape:cx="979.55291"
     inkscape:cy="186.31797"
     inkscape:window-width="2560"
     inkscape:window-height="1494"
     inkscape:window-x="-11"
     inkscape:window-y="-11"
     inkscape:window-maximized="1"
     inkscape:current-layer="layer1" />
  <defs
     id="defs1" />
  <g
     inkscape:label="Layer 1"
     inkscape:groupmode="layer"
     id="layer1">
    <circle
       style="fill:#ffffff;fill-opacity:1;stroke-width:0"
       id="path2"
       cx="108.09459"
       cy="106.0238"
       r="95" />
    <path
       id="path1"
       d="m 118.30618,25.550707 c -0.17058,0.01573 -0.33603,0.08997 -0.46955,0.31487 3.25691,1.854199 5.44541,4.471244 6.16391,8.291857 -0.6972,0.02308 -0.99152,-0.31445 -1.3394,-0.523958 -5.98135,-3.60235 -12.51002,-4.965118 -19.52795,-4.729106 -7.729891,0.143949 -14.909991,2.107343 -21.783061,5.366186 2.570074,-0.412455 5.148382,-0.675793 7.733984,-0.621156 4.347407,0.09186 6.679367,0.532887 7.801169,1.370133 -7.380709,-0.255752 -14.479462,0.610638 -21.277049,3.230742 -6.810301,2.624995 -12.756078,6.572354 -17.759981,11.934249 4.471822,-2.167654 9.085041,-3.845766 14.019996,-4.611899 -6.651456,3.176121 -12.643612,7.267263 -17.943529,12.345907 -5.220364,5.002386 -12.64795,15.540629 -12.411006,17.824804 4.160193,-4.37215 8.605518,-8.146613 14.105626,-10.804253 -0.193608,0.891978 -0.726724,1.367747 -1.121004,1.912069 -5.972637,8.245345 -11.273802,16.868857 -14.928774,26.412336 -2.769158,7.230552 -4.532282,14.705482 -4.958093,22.435492 -0.274022,4.97458 0.102731,9.94123 0.974328,14.86523 1.46813,8.29408 4.542611,15.91256 9.481873,22.76341 0.224688,0.31166 0.380791,0.73151 0.933766,0.82903 -0.02568,-0.67237 -0.293059,-1.1959 -0.503957,-1.73768 -3.495392,-8.97947 -4.689334,-18.20245 -3.046317,-27.75103 1.38258,-8.03506 4.325233,-15.45882 8.587035,-22.39219 2.949347,-4.798175 6.457588,-9.175508 10.137436,-13.421197 0.655927,-0.756776 1.231447,-1.636039 2.310039,-2.322896 -0.28002,1.179647 -0.906321,1.902412 -1.384468,2.681458 -4.496944,7.326854 -8.421639,14.943825 -11.421102,22.996615 -2.808954,7.54129 -4.140848,15.34014 -3.801853,23.43071 0.235782,5.62721 1.257525,11.06486 3.249541,16.3097 3.091708,8.14025 8.192368,14.92778 14.455123,20.90281 0.162821,0.15531 0.313186,0.38525 0.828878,0.22298 -7.274478,-9.44076 -12.289578,-19.7925 -13.978619,-31.63968 -1.393019,-9.77085 1.088683,-31.5528 4.112834,-34.20107 0.293477,0.27415 0.105101,0.58077 0.05982,0.87558 -0.55469,3.61121 -1.0126,7.23422 -1.105033,10.88961 -0.09252,3.65855 0.180948,7.30385 0.590416,10.93656 0.949538,8.42421 3.246886,16.43384 7.403333,23.87668 4.409631,7.89618 10.474567,14.11142 18.471264,18.45412 5.747878,3.12144 11.872469,5.02872 18.313525,6.00409 1.28385,0.1944 2.5814,0.29803 3.87272,0.4435 -13.264174,-6.53462 -24.362663,-15.29921 -30.863011,-28.90798 -6.441807,-13.4862 -7.816002,-27.5868 -3.709656,-41.88485 4.443635,-15.472485 14.510898,-26.810076 28.06253,-35.215095 -0.895874,1.874469 -2.116819,3.506075 -3.393349,5.115444 -3.384427,4.266883 -6.462574,8.746797 -9.27578,13.41342 -2.98192,4.9465 -5.523807,10.090331 -7.166105,15.630971 -1.792593,6.04762 -2.68514,12.20778 -2.229735,18.54888 0.515628,7.1796 2.324421,13.97858 5.549742,20.41519 3.598478,7.18133 8.701959,13.0933 15.14183,17.87422 4.13202,3.06759 8.674144,5.46993 13.132534,8.01538 5.83082,3.32903 11.5095,6.89329 16.06126,11.94732 0.18336,0.20362 0.3583,0.51826 0.76372,0.40838 -0.0575,-0.98115 -0.67635,-1.70156 -0.98047,-2.54177 -1.1581,-3.19969 -2.84774,-6.12133 -4.78847,-8.90037 -3.92658,-5.62263 -8.80829,-10.33595 -14.10235,-14.65778 -3.13468,-2.559 -6.310679,-5.07636 -9.213923,-7.8998 -3.770552,-3.66692 -6.963647,-7.76857 -9.568736,-12.36102 -5.561201,-9.80369 -7.204305,-20.32672 -5.859491,-31.35789 0.783771,-6.429115 3.197876,-12.363419 6.261839,-18.060042 4.633654,-8.615033 11.272909,-15.162921 19.964701,-19.665404 0.81804,-0.423732 1.6734,-0.804207 2.30226,-1.581269 -7.06442,1.507666 -14.403624,1.527367 -21.234037,4.201064 2.229048,-1.526213 4.690267,-2.477316 7.311145,-3.161723 -1.249844,-0.505102 -2.628757,-0.104295 -4.020637,-0.690981 0.336166,-0.15461 0.483671,-0.234274 0.639173,-0.292411 2.479181,-0.926875 5.089241,-1.170125 7.689336,-1.482442 3.42297,-0.411159 6.00665,-2.102902 7.7147,-5.107266 1.06382,-1.87115 1.28985,-5.124342 -1.05995,-6.567249 -0.11439,-0.07025 -0.1949,-0.201952 -0.11143,-0.370406 0.30501,-0.26567 0.69109,-0.2781 1.07552,-0.291581 3.10505,-0.109021 6.20226,-0.227549 9.31881,-0.116394 5.5403,0.197582 10.81181,1.446715 15.77198,3.804113 6.45824,3.06936 12.11105,7.320611 17.16261,12.367954 0.3591,0.358806 0.64108,0.836053 1.19393,0.960523 0.34719,-0.545018 0.31159,-0.541572 0.26551,-1.018511 -0.1812,-1.875062 -1.57688,-2.880343 -2.85211,-3.953175 -2.06295,-1.73553 -4.15943,-3.43139 -6.24176,-5.144027 0.25309,-0.08114 0.4128,-0.02955 0.56051,0.04536 4.2066,2.134188 8.33123,4.412278 12.27087,7.009117 0.96786,0.637973 1.79416,1.438702 2.4137,2.43684 0.81353,1.310692 0.68542,2.586313 -0.43431,3.781647 -0.92215,-1.336082 -1.61473,-2.856139 -3.04467,-3.767351 0.21152,0.825305 1.01638,1.295155 1.13453,2.17588 0.17819,1.328488 0.85466,2.427437 1.8118,3.339771 2.5801,2.459315 5.31537,4.738708 8.25271,6.760825 3.93857,2.711407 8.0537,5.158363 11.96523,7.914916 2.6406,1.860901 4.63871,4.172149 5.80334,7.298264 -1.46584,0.496204 -2.88097,0.969057 -4.29105,1.457122 -0.30638,0.106034 -0.5359,7.91e-4 -0.78013,-0.156411 -2.11249,-1.359592 -4.30918,-1.670984 -6.665,-0.619521 -1.39874,0.62427 -2.73318,0.38852 -3.93459,-0.560719 -0.84858,-0.670459 -1.69135,-1.348007 -2.54236,-2.015376 -0.21371,-0.167609 -0.43157,-0.405193 -0.74241,-0.247486 -0.29716,0.150769 -0.26588,0.45689 -0.28681,0.735093 -0.0908,1.206515 0.51513,2.153335 1.2013,3.038389 1.54131,1.988067 3.43378,3.458627 6.00658,3.888657 0.42012,0.0703 1.1413,0.16442 0.94073,0.72734 -0.55423,1.55562 0.41272,2.5866 1.08947,3.72366 0.2587,0.43464 0.41017,0.85334 0.43104,1.36237 0.10766,2.62581 -0.97797,4.6385 -3.075,6.17397 -2.85447,2.0901 -5.89057,3.86181 -9.08241,5.3956 -5.03172,2.41792 -10.22191,2.65075 -15.51303,1.16512 -2.73869,-0.76895 -5.25687,-2.25596 -8.20845,-2.36088 -1.50639,-0.0536 -2.99772,-0.0621 -4.7221,-0.0939 1.03117,1.14151 1.00156,2.31373 1.40005,3.55336 -4.07333,-0.75556 -6.17383,-3.78016 -8.61858,-6.36837 0.87365,1.97996 2.10484,3.68368 3.67974,5.11625 1.89993,1.72827 4.12299,2.97717 6.41345,4.11776 1.50034,0.74715 3.00245,1.50928 4.19558,2.72516 0.29832,0.30398 0.78012,0.62567 0.4339,1.1496 -0.96123,1.45469 -1.11689,3.11181 -1.20869,4.90104 -2.39459,-1.45755 -4.97666,-2.09101 -7.51642,-2.8391 -5.63297,-1.65914 -10.72643,-4.19565 -14.54978,-8.82521 -0.22706,-0.27494 -0.45896,-0.69537 -0.96039,-0.61462 0,0.13981 -0.0213,0.21708 0.004,0.27361 0.071,0.15806 0.15417,0.312 0.245,0.45985 2.15801,3.51233 5.15618,6.21477 8.46659,8.58712 2.72334,1.95165 5.57521,3.72749 8.26949,5.71658 5.25091,3.87651 10.16311,8.09248 13.26775,14.00885 3.69461,7.04061 4.43452,14.33931 2.03756,21.93684 -0.13006,0.41224 -0.50062,0.76216 -0.37408,1.2562 0.39252,0.0662 0.49227,-0.25713 0.64082,-0.45617 0.77133,-1.03346 1.55073,-2.06303 2.27069,-3.1319 3.33844,-4.95634 5.14563,-10.34271 4.37097,-16.37545 -0.50882,-3.96251 -2.11854,-7.40855 -5.21499,-10.06344 -1.06741,-0.91517 -2.30823,-1.56643 -3.50767,-2.28002 -1.29742,-0.77187 -2.53453,-1.60113 -3.37982,-2.90648 -1.1416,-1.76295 -1.25341,-5.00609 -0.14874,-6.44433 1.02371,1.32317 1.8524,2.83006 3.4085,3.64158 0.4143,-0.50701 0.15499,-1.12913 0.61133,-1.58576 1.04325,0.9915 2.16427,1.84261 3.57034,2.14729 0.39352,-0.45795 0.31681,-0.98981 0.57732,-1.48775 1.54684,1.91835 3.55909,3.19138 5.49154,4.61721 0.52439,-0.78842 -0.0354,-1.45277 0.0476,-2.16567 1.2087,0.43744 2.36166,0.93091 3.36795,1.68459 0.77062,0.57713 1.46816,0.51532 2.19121,-0.0216 0.54759,-0.40665 1.08968,-0.82032 1.66389,-1.25334 0.37175,0.6275 0.24379,1.48247 1.16117,1.75361 0.39953,-0.94497 0.8489,-1.81084 1.6389,-2.42295 0.79945,-0.61942 1.6203,-1.2118 2.41943,-1.83161 3.35151,-2.59946 5.46185,-5.82584 5.17976,-10.25007 -0.0285,-0.44669 0.0765,-0.7763 0.49371,-1.05404 1.61546,-1.07538 2.72825,-2.60222 3.53265,-4.32072 1.84367,-3.93869 2.83104,-8.14634 3.70762,-12.37695 0.29414,-1.41955 0.83929,-2.86701 0.43186,-4.31296 -0.31744,-1.12645 0.1149,-1.62545 0.99071,-2.17097 1.83646,-1.143914 2.44136,-3.003267 1.49549,-4.758522 -1.31202,-2.43473 -2.89722,-4.690772 -5.09043,-6.44432 -2.78426,-2.226132 -5.73607,-4.225893 -8.75091,-6.11721 -3.76452,-2.361618 -7.40061,-4.875506 -10.69961,-7.859789 -0.53558,-0.484509 -0.75642,-0.852142 -0.46789,-1.670707 0.63914,-1.813195 0.48539,-3.637073 -0.65679,-5.282872 -0.66375,-0.956414 -1.49211,-1.757665 -2.44157,-2.420095 -2.69153,-1.877899 -5.35123,-3.809052 -8.1269,-5.555677 -1.04443,-0.657223 -1.25136,-1.198415 -1.0198,-2.388241 0.45908,-2.359041 0.11928,-4.663691 -1.46356,-6.619112 -0.73882,-0.912761 -1.14602,-0.871748 -1.87941,0.02284 -0.3303,0.402933 -0.67644,0.812235 -1.08575,1.127958 -1.25797,0.970306 -2.58458,1.824479 -4.21733,2.143212 -0.0729,-0.545499 0.20789,-0.844674 0.36795,-1.179418 2.90557,-6.077026 2.72244,-12.081667 -0.95754,-17.705968 -4.50457,-6.884515 -11.17657,-10.158758 -19.32521,-10.590329 -0.15434,-0.0081 -0.32971,-0.05089 -0.50028,-0.03509 z M 84.931127,51.814803 c 2.299252,-0.0569 4.667753,0.477594 6.876025,1.546964 2.924092,1.415991 5.258059,3.516436 7.122666,6.156406 0.801733,1.13511 1.560152,2.306609 2.701752,3.27117 -0.58625,0.451003 -1.14315,0.353172 -1.705305,0.174792 -1.38024,-0.438003 -2.402536,-1.40047 -3.39662,-2.376395 -2.250724,-2.209639 -4.744398,-4.020392 -7.885582,-4.716447 -5.124035,-1.135473 -9.892093,1.022873 -11.393247,6.350401 -0.992725,3.523168 0.174879,6.570757 2.284222,9.367953 1.56024,2.069009 3.61094,3.451818 6.041,4.310511 0.487053,0.172097 0.963707,0.372896 1.452476,0.563161 C 86.367624,77.771 85.939206,77.988623 84.6054,77.756673 78.955124,76.77415 74.353664,72.035316 73.445281,66.322287 c -0.510674,-3.211753 -0.04821,-6.226484 1.627023,-9.035936 2.386771,-3.639396 6.026752,-5.376688 9.858823,-5.471548 z m 52.790323,12.096785 c 0.0744,0.628616 0.17795,1.16562 -0.36221,1.697662 -2.11084,2.079085 -1.60947,4.966067 -0.0664,7.035669 0.25611,0.343499 0.69451,0.594407 0.68341,1.159401 -0.18989,0.01233 -0.36816,0.06448 -0.52608,0.02821 -1.74436,-0.400767 -3.38755,0.01383 -5.02078,0.577457 -1.44979,0.500314 -2.89891,1.019206 -4.44922,1.121833 -1.02459,0.0678 -2.05954,0.04536 -3.3831,0.442287 2.20743,1.179726 4.27816,2.099125 5.93119,3.761638 1.46528,1.40273 2.98753,2.543403 5.07241,2.518922 1.35964,-0.01596 2.7191,-0.07491 4.07841,-0.117208 1.45429,-0.04528 2.70504,0.479056 3.6187,1.566159 1.85055,2.201824 4.63581,2.315326 7.16323,3.498229 -0.10883,-1.838601 -0.56229,-3.275232 -1.80402,-4.38157 -0.84245,-0.750596 -1.83446,-1.314722 -2.87629,-1.682544 -3.77384,-1.3324 -4.63625,-4.99239 -6.41547,-7.894505 -0.76385,-1.245947 -0.0523,-2.642949 0.12168,-3.970323 0.081,-0.617323 0.11492,-1.256221 0.0533,-1.873671 -0.13764,-1.378841 -0.75521,-2.537223 -1.81877,-3.487616 z m -2.85047,11.730471 c 0.31924,-0.02544 0.58197,0.0963 0.72276,0.497414 0.21576,0.614755 0.0933,1.26097 -0.45686,1.703375 -0.24192,0.194532 -0.45102,-0.0063 -0.58917,-0.234826 -0.29708,-0.658701 -0.24309,-1.214038 -0.29829,-1.789543 0.21805,-0.09284 0.43001,-0.161152 0.62156,-0.17642 z m -3.29133,1.114485 c 0.33564,-0.0215 0.56705,0.322953 0.81413,0.669345 1.18041,1.654823 2.48745,2.123093 4.45658,1.621696 0.50096,-0.218144 0.84206,-0.386701 1.22262,-0.574603 0.6491,0.544227 0.88697,1.393595 1.64546,1.945148 -5.23272,0.570289 -6.86211,0.393798 -8.67266,-3.37123 0.2071,-0.195267 0.38131,-0.280589 0.53387,-0.290356 z m -33.81919,3.37571 c -0.34798,0.03564 -0.426245,0.29283 -0.542465,0.494964 -4.955983,8.619308 -8.777797,17.636254 -9.650691,27.666502 -0.54817,6.29893 -0.170865,12.54343 1.776164,18.584 2.236057,6.93722 6.007905,12.98293 11.154362,18.18908 4.42658,4.47792 9.3936,8.32292 14.22323,12.33243 5.66286,4.70123 10.90943,9.7824 14.68705,16.27947 2.30471,3.94649 3.55763,8.17309 4.14561,12.75796 0.28033,-0.24409 0.38573,-0.29526 0.42446,-0.37775 0.0881,-0.18766 0.15729,-0.38713 0.20978,-0.58807 1.51323,-5.79243 1.7122,-11.61241 0.21675,-17.43113 -2.18372,-8.49695 -7.40596,-15.02267 -13.76719,-20.77661 -4.11343,-3.72072 -8.66256,-6.93231 -12.70765,-10.73401 -3.76119,-3.53485 -6.95225,-7.51835 -9.449925,-12.04043 -2.876392,-5.20773 -4.717569,-10.75009 -5.452219,-16.65683 -0.530359,-4.26412 -0.638589,-8.539462 -0.178641,-12.806568 0.537123,-4.983041 2.339112,-9.573801 4.666773,-13.978224 0.144202,-0.272836 0.439948,-0.538284 0.244602,-0.914784 z m 3.05001,4.270486 c -0.976338,1.794379 -1.239321,3.833929 -1.844996,5.847266 -1.162302,4.794815 -1.145201,9.562162 -0.374493,14.289834 1.794369,11.00698 6.605079,20.53251 14.465369,28.5188 3.77321,3.83367 7.97468,7.20318 11.78988,10.98679 7.01112,6.9531 12.42252,14.78487 13.64755,24.8911 0.52422,4.32464 0.42348,8.60736 -0.91328,12.80126 -0.0612,0.19186 -0.19459,0.3858 0.0553,0.58316 0.0777,-0.0194 0.20691,-0.0123 0.26425,-0.0727 0.43112,-0.45363 0.86002,-0.91004 1.26729,-1.38485 2.41342,-2.81357 4.64746,-5.72508 6.03649,-9.22665 2.66827,-6.72631 2.30913,-13.26919 -0.97145,-19.67724 -2.72663,-5.32599 -6.86481,-9.44325 -11.46536,-13.14879 -4.22859,-3.40589 -9.02308,-5.96528 -13.5439,-8.93384 -8.93592,-5.86769 -15.2699,-13.67319 -18.29792,-24.00614 -1.754581,-5.987363 -2.284331,-12.019174 -0.77275,-18.138044 0.26995,-1.092792 0.60908,-2.168697 0.91616,-3.252386 -0.086,-0.02592 -0.17215,-0.05168 -0.25814,-0.0776 z m 48.14852,18.51621 c -0.3046,0.0108 -0.60492,0.098 -0.87682,0.37041 0.24832,0.51785 0.73807,0.49725 1.15215,0.6183 2.35314,0.68786 4.77228,1.02 7.20545,1.17043 2.2586,0.13963 4.52976,0.1909 6.78751,-0.0837 0.30521,-0.0371 0.80876,0.0888 0.84117,-0.40757 0.0316,-0.48416 -0.40179,-0.5875 -0.79487,-0.6575 -0.17135,-0.0305 -0.34287,-0.0624 -0.60639,-0.0988 -4.34531,-0.0469 -8.58096,-0.34374 -12.8064,-0.82372 -0.28853,-0.0328 -0.59718,-0.0986 -0.9018,-0.0878 z m 31.16252,0.72489 c 0.86777,2.17486 -3.47421,16.20103 -5.54481,17.57324 0.055,-2.0205 0.0465,-3.95783 -0.96286,-5.69738 -0.59621,-0.99843 -0.32822,-1.78247 -0.0967,-2.70352 0.69836,-2.7782 2.07871,-4.9882 4.45701,-6.63137 0.90729,-0.62683 1.27399,-1.81301 2.14737,-2.54097 z m -34.39854,3.74449 c -0.26797,0.005 -0.51845,0.0821 -0.68793,0.37489 0.17713,0.50218 0.59114,0.56765 0.94893,0.63913 3.52004,0.70329 7.01865,1.53679 10.64182,1.57555 2.97668,0.0318 5.93529,-0.10963 8.85867,-0.69466 0.3681,-0.0737 0.99098,-0.0811 0.89362,-0.65056 -0.0964,-0.56374 -0.64886,-0.5572 -1.11487,-0.43003 -0.58258,0.15898 -1.17298,0.16896 -1.86425,0.16948 -2.36399,0.0516 -4.6415,0.2652 -6.89527,0.11721 -3.43953,-0.22585 -6.86199,-0.7066 -10.29313,-1.06548 -0.15971,-0.0167 -0.3268,-0.0388 -0.48759,-0.0356 z m -0.71661,4.36033 c -0.16052,0.01 -0.32115,0.0587 -0.48142,0.1752 0.41138,0.60756 0.41654,0.59576 1.10258,0.89886 4.66027,2.05889 9.54197,2.15885 14.492,1.62087 1.42117,-0.15444 2.84813,-0.29408 4.23041,-0.69302 0.35656,-0.1029 0.77082,-0.11973 1.01202,-0.96543 -3.57481,0.0595 -7.01879,0.78053 -10.56765,0.43207 -3.11953,-0.0612 -6.06722,-0.60238 -8.98733,-1.32766 -0.26557,-0.066 -0.53305,-0.15732 -0.80061,-0.14089 z m 23.29578,7.4024 c 1.16105,-0.0219 2.20059,0.47806 3.11433,1.36115 0.27117,0.26208 0.60653,0.63835 0.3282,1.00422 -0.5963,0.78379 -0.22874,1.51912 -0.0311,2.28165 0.71475,2.75813 0.21792,5.21559 -1.80813,7.34236 -0.33583,-0.41056 -0.1566,-1.02734 -0.7924,-1.33011 -0.70448,1.96312 -2.16671,3.31681 -3.77849,4.80588 -0.45541,-1.62873 0.89981,-2.83551 0.45602,-4.31377 -0.87033,2.33788 -2.93757,3.35076 -4.8282,4.56942 -0.56286,0.36281 -0.84925,0.30712 -1.40784,-0.13068 -1.31173,-1.02807 -2.4202,-2.17417 -3.17455,-3.65995 -0.0874,-0.17215 -0.23552,-0.35882 -0.64899,-0.26872 0.69781,1.47892 -0.0726,2.54343 -1.14888,3.76613 -0.34377,-1.44891 -0.96424,-2.52752 -1.96505,-3.3994 -0.60404,-0.52621 -1.07592,-0.49518 -1.65242,-0.0253 -0.76514,0.62359 -1.23064,1.51037 -2.07075,2.29716 -0.98904,-1.60294 -1.79877,-3.1395 -0.81168,-5.22325 -1.42326,0.50885 -1.41712,1.76464 -2.21907,2.48666 -2.47726,-2.28411 -4.93993,-4.5038 -5.05602,-8.19099 -0.01,-0.31233 -0.006,-0.6303 0.0401,-0.93847 0.14853,-1.00242 0.53049,-1.15578 1.39718,-0.58481 2.43976,1.60734 4.97943,2.93321 7.97613,3.19726 3.93675,0.34685 7.63474,-0.38125 11.11423,-2.23837 1.96155,-1.03503 3.79076,-1.99383 5.76607,-2.60672 0.41387,-0.12843 0.8143,-0.19403 1.2013,-0.20134 z"
       style="fill:#1aa1f2;stroke-width:0.209434;fill-opacity:1" />
    <path
       d="m 338.67636,122.3333 q 0,6.8833 -2.6045,12.15429 -2.60449,5.271 -7.00732,8.68164 -5.20899,4.09278 -11.47217,5.82911 -6.20117,1.73632 -15.81299,1.73632 H 269.0372 V 58.39921 h 27.34716 q 10.10791,0 15.13086,0.744141 5.02295,0.74414 9.61182,3.100586 5.08496,2.666504 7.37939,6.8833 2.29444,4.154786 2.29444,9.983887 0,6.573242 -3.34864,11.224121 -3.34863,4.588867 -8.92968,7.379391 v 0.4961 q 9.36377,1.922364 14.75879,8.247564 5.39502,6.26318 5.39502,15.875 z M 318.02645,80.723429 q 0,-3.348633 -1.11621,-5.643067 -1.11621,-2.294433 -3.59668,-3.720703 -2.91455,-1.674316 -7.06933,-2.046386 -4.15479,-0.434082 -10.29395,-0.434082 H 281.31552 V 95.54423 h 15.875 q 5.76709,0 9.17773,-0.558106 3.41064,-0.620117 6.3252,-2.480469 2.91455,-1.860351 4.09277,-4.774902 1.24023,-2.976562 1.24023,-7.007324 z m 7.87549,42.105961 q 0,-5.58105 -1.67432,-8.86768 -1.67431,-3.28662 -6.07714,-5.58105 -2.97657,-1.55029 -7.25537,-1.98438 -4.2168,-0.49609 -10.29395,-0.49609 h -19.28564 v 34.35449 h 16.24707 q 8.06152,0 13.20849,-0.80615 5.14697,-0.86816 8.4336,-3.10059 3.47265,-2.41845 5.08496,-5.51904 1.6123,-3.10058 1.6123,-7.99951 z m 88.30469,-6.69727 q 0,16.9292 -8.68164,26.72705 -8.68164,9.79786 -23.2544,9.79786 -14.69677,0 -23.37841,-9.79786 -8.61963,-9.79785 -8.61963,-26.72705 0,-16.929204 8.61963,-26.727051 8.68164,-9.859863 23.37841,-9.859863 14.57276,0 23.2544,9.859863 8.68164,9.797847 8.68164,26.727051 z m -12.03027,0 q 0,-13.45654 -5.271,-19.967774 -5.271,-6.573241 -14.63477,-6.573241 -9.48779,0 -14.75879,6.573241 -5.20898,6.511234 -5.20898,19.967774 0,13.02247 5.271,19.78174 5.27099,6.69727 14.69677,6.69727 9.30176,0 14.57276,-6.63526 5.33301,-6.69726 5.33301,-19.84375 z m 41.85791,34.60254 H 432.37606 V 54.244425 h 11.65821 z m 79.25097,0 h -11.6582 v -7.25537 q -5.02295,4.34082 -10.47998,6.75928 -5.45703,2.41846 -11.84424,2.41846 -12.40234,0 -19.71973,-9.54981 -7.25537,-9.5498 -7.25537,-26.479 0,-8.80567 2.48047,-15.68897 2.54248,-6.883302 6.82129,-11.720216 4.2168,-4.71289 9.79785,-7.193359 5.64307,-2.480469 11.6582,-2.480469 5.45704,0 9.67383,1.178223 4.2168,1.116211 8.86768,3.534668 V 54.244425 h 11.6582 z m -11.6582,-17.05322 V 93.931925 q -4.71289,-2.108399 -8.43359,-2.914551 -3.72071,-0.806152 -8.12354,-0.806152 -9.79785,0 -15.25488,6.821284 -5.45703,6.821294 -5.45703,19.347664 0,12.34033 4.21679,18.78955 4.2168,6.38721 13.51856,6.38721 4.96093,0 10.0459,-2.17041 5.08496,-2.23242 9.48779,-5.70508 z m 141.01465,17.05322 h -60.8335 V 58.39921 h 60.8335 v 10.914063 h -48.55518 v 25.300781 h 48.55518 v 10.914066 h -48.55518 v 34.29248 h 48.55518 z m 30.32373,0 H 671.30721 V 54.244425 h 11.65821 z m 81.04931,-33.42431 h -51.03564 q 0,6.3872 1.92236,11.16211 1.92237,4.71289 5.271,7.75146 3.22461,2.97656 7.62744,4.46484 4.46484,1.48829 9.79785,1.48829 7.06934,0 14.20069,-2.79053 7.19335,-2.85254 10.23193,-5.58106 h 0.62012 v 12.71241 q -5.89112,2.48047 -12.03028,4.15478 -6.13916,1.67432 -12.89843,1.67432 -17.23926,0 -26.91309,-9.30176 -9.67383,-9.36377 -9.67383,-26.54102 0,-16.991214 9.23975,-26.975097 9.30176,-9.983887 24.43261,-9.983887 14.01465,0 21.58008,8.185547 7.62744,8.185547 7.62744,23.254397 z m -11.34814,-8.92969 q -0.062,-9.177744 -4.65088,-14.200688 -4.52685,-5.022949 -13.82861,-5.022949 -9.36377,0 -14.94483,5.519043 -5.51904,5.519044 -6.26318,13.704594 z M 841.59139,81.467569 813.5621,150.73466 H 801.84188 L 773.99862,81.467569 h 12.65039 l 21.45606,55.128421 21.27002,-55.128421 z m 66.60059,69.267091 h -11.59619 v -7.37939 q -1.55029,1.0542 -4.2168,2.97656 -2.60449,1.86035 -5.08496,2.97656 -2.91455,1.42627 -6.69726,2.35645 -3.78272,0.99219 -8.86768,0.99219 -9.36377,0 -15.875,-6.20118 -6.51123,-6.20117 -6.51123,-15.81298 0,-7.87549 3.34863,-12.71241 3.41065,-4.89892 9.67383,-7.68945 6.3252,-2.79053 15.19287,-3.78271 8.86768,-0.99219 19.0376,-1.48829 v -1.79834 q 0,-3.968754 -1.42627,-6.573244 -1.36426,-2.604489 -3.96875,-4.092771 -2.48047,-1.426269 -5.95313,-1.922363 -3.47265,-0.496094 -7.25537,-0.496094 -4.58886,0 -10.23193,1.240235 -5.64307,1.178222 -11.6582,3.472656 h -0.62012 V 82.955851 q 3.41064,-0.930176 9.85986,-2.046387 6.44922,-1.116211 12.7124,-1.116211 7.31739,0 12.71241,1.240234 5.45703,1.178223 9.42578,4.092774 3.90674,2.852539 5.95312,7.379394 2.04639,4.526851 2.04639,11.224125 z M 896.59579,133.68144 V 114.3958 q -5.33301,0.31005 -12.58838,0.93017 -7.19336,0.62012 -11.41016,1.79834 -5.02295,1.42627 -8.12353,4.46485 -3.10059,2.97656 -3.10059,8.24755 0,5.95313 3.59668,8.9917 3.59668,2.97657 10.97608,2.97657 6.13916,0 11.22412,-2.35645 5.08496,-2.41846 9.42578,-5.76709 z m 70.01123,16.43311 q -3.28662,0.86816 -7.19336,1.42627 -3.84473,0.5581 -6.8833,0.5581 -10.604,0 -16.12305,-5.70508 -5.51904,-5.70508 -5.51904,-18.29345 V 91.265421 h -7.87549 v -9.797852 h 7.87549 V 61.561808 h 11.6582 v 19.905761 h 24.06055 v 9.797852 h -24.06055 v 31.563969 q 0,5.45703 0.24805,8.55762 0.24805,3.03857 1.73633,5.70508 1.36426,2.48046 3.7207,3.65869 2.41846,1.11621 7.31738,1.11621 2.85254,0 5.95313,-0.80615 3.10058,-0.86817 4.46484,-1.42627 h 0.62012 z m 72.05768,-32.8042 h -51.03571 q 0,6.3872 1.92237,11.16211 1.92236,4.71289 5.27099,7.75146 3.22464,2.97656 7.62745,4.46484 4.4649,1.48829 9.7979,1.48829 7.0693,0 14.2007,-2.79053 7.1934,-2.85254 10.232,-5.58106 h 0.6201 v 12.71241 q -5.8911,2.48047 -12.0303,4.15478 -6.1392,1.67432 -12.8985,1.67432 -17.23925,0 -26.91312,-9.30176 -9.67383,-9.36377 -9.67383,-26.54102 0,-16.991214 9.23975,-26.975097 9.30176,-9.983887 24.4327,-9.983887 14.0147,0 21.5801,8.185547 7.6274,8.185547 7.6274,23.254397 z m -11.3481,-8.92969 q -0.062,-9.177744 -4.6509,-14.200688 -4.5269,-5.022949 -13.8287,-5.022949 -9.36371,0 -14.94482,5.519043 -5.51905,5.519044 -6.26319,13.704594 z"
       id="text1"
       style="font-size:127px;fill:#000000;fill-opacity:1;stroke-width:0"
       aria-label="Bold Elevate" />
  </g>
</svg>
